<?xml version="1.0" encoding="utf-8"?>
<!-- Generator: $$$/GeneralStr/196=Adobe Illustrator 27.6.0, SVG Export Plug-In . SVG Version: 6.00 Build 0)  -->
<svg version="1.1" id="Ebene_1" xmlns="http://www.w3.org/2000/svg" xmlns:xlink="http://www.w3.org/1999/xlink" x="0px" y="0px"
	 viewBox="0 0 326 326" style="enable-background:new 0 0 326 326;" xml:space="preserve">
<style type="text/css">
	.st0{fill:#E3E8E2;}
</style>
<rect x="0" width="326" height="326"/>
<g>
	<g>
		<g>
			<path class="st0" d="M147.7,63.5c-0.6-5.9-20.8-12.9-41.4-12.3C81.6,51.9,65.9,62,65.8,62.1l-6.6-10c0.7-0.5,18.5-12.2,46.8-12.9
				c16.6-0.5,51.4,4.5,53.7,22.8c0.3,1.8,0.8,8-2.8,19.5c-4.1,12.7-14.8,26.4-15.7,27.5c-1.5,2-2.9,3.8-4.2,5.4
				c-5.7,7.3-6.2,8.2-5.6,11.2c1,5,7.6,9.7,23.3,7.7c0.1,0,7.8-1,13.5-2l2.2,11.8c-6.1,1.1-13.9,2.1-14.2,2.1
				c-3,0.4-5.8,0.6-8.4,0.6c-8.2,0-14.9-1.8-19.9-5.4c-6.1-4.4-7.8-10.2-8.3-12.5c-1.7-8.6,2-13.2,8-20.9c1.2-1.5,2.6-3.3,4.1-5.3
				l0.1-0.1c0.1-0.1,10.2-12.9,13.7-23.8c2.8-8.7,2.5-13.1,2.4-13.8L147.7,63.5z"/>
		</g>
	</g>
	<g>
		<g>
			<path class="st0" d="M167.1,289.2c-7,0-18.6-2.4-30.9-18.3c-9.6-12.5-26.1-34.8-41-55.6c-14.9-20.8-26.6-37.7-30.7-49
				c-7.6-21.4-2.4-38.2,13.9-44.9c12.5-5.1,24.1-6,24.6-6l0.8,12c-0.1,0-10.3,0.8-20.9,5.1c-12.9,5.3-11,19.1-7.2,29.8
				c3.5,9.8,15.8,27.4,29.1,46c14.8,20.7,31.2,42.9,40.7,55.3c11.3,14.6,19.8,13.9,24.5,13.4c4.1-1,8.2-2.2,15.5-14.7
				c13.2-22.4,27.9-50.9,37.5-69.8c4.4-8.6,7.6-14.9,9.4-18c11.3-20,14.3-30,11.3-37.1c-3.5-8.3-10.7-12.3-22-12.3
				c-5.6,0-30.3,1.7-42.6,2.6l-0.9-12c1.5-0.1,36-2.6,43.5-2.6c20.3,0,29.2,10.6,33,19.5c5.4,12.6-0.2,27.1-11.9,47.7
				c-1.7,2.9-5,9.4-9.2,17.6c-9.7,19-24.5,47.6-37.9,70.4c-8.6,14.5-14.8,18.4-23.5,20.4c-0.2,0.1-0.5,0.1-0.7,0.1l-0.2,0
				C170.6,289,169,289.2,167.1,289.2z"/>
		</g>
	</g>
	<g>
		<g>
			<path class="st0" d="M67.2,95.9l-8.7-8.2c1-1,24.4-25.4,60.7-15.7l-3.1,11.6C87,75.7,68,95.1,67.2,95.9z"/>
		</g>
	</g>
	<g>
		<g>
			<path class="st0" d="M164,257.1c-5.9,0-11.6-3.7-17-11.1c-5.2-7.1-13.1-18.2-19.8-28.1c-12.9-19-12.9-21.2-12.9-23.4
				c0-15.4,30.7-19.2,40.2-19.9c19.3-1.6,34.5,1.9,35.1,2.1l-2.8,11.7c-0.1,0-14.1-3.2-31.3-1.8c-17.9,1.5-26.7,5.9-28.8,8
				c2.8,5.7,15.8,25,30,44.3c3.4,4.7,6.1,6.3,7.5,6.2c1.1-0.1,2.3-1.5,2.8-2.4c0.4-0.7,1.4-2.6,2.9-5.3c7-12.8,25.7-46.8,31.7-60.1
				c1.2-2.7,1.5-4.8,0.7-6.3c-0.7-1.3-2.8-3.7-9.9-5.2l-0.1,0c-5.3-1.1-45-3.7-69.7,6.2l-4.5-11.1c27.7-11.2,69.8-8.3,76.7-6.9
				l0.1,0c9.2,1.9,15.3,5.8,18.1,11.5c1.7,3.4,3,9-0.5,16.7c-6.2,13.7-24.3,46.8-32.1,60.9c-1.5,2.6-2.5,4.5-2.8,5.2
				c-2.1,3.9-6.5,8.3-12.5,8.7C164.6,257.1,164.3,257.1,164,257.1z"/>
		</g>
	</g>
	<g>
		<g>
			<path class="st0" d="M248.4,93.6c-21.1-17.6-51.4-9.8-51.7-9.7l-3.1-11.6c1.5-0.4,36.5-9.5,62.5,12.1L248.4,93.6z"/>
		</g>
	</g>
	<g>
		<g>
			<path class="st0" d="M188.8,63.9l-8.6-8.4c0.3-0.3,8.5-8.6,23.1-13.5c13.3-4.4,34.7-6.9,61.4,6.6l-5.4,10.7
				C215.8,37.4,189.8,62.8,188.8,63.9z"/>
		</g>
	</g>
</g>
</svg>
