<?xml version="1.0" encoding="utf-8"?>
<!-- Generator: $$$/GeneralStr/196=Adobe Illustrator 27.6.0, SVG Export Plug-In . SVG Version: 6.00 Build 0)  -->
<svg version="1.1" xmlns="http://www.w3.org/2000/svg" xmlns:xlink="http://www.w3.org/1999/xlink" x="0px" y="0px"
	 viewBox="0 0 283.5 283.5" style="enable-background:new 0 0 283.5 283.5;" xml:space="preserve">
<style type="text/css">
	.st0{display:none;}
	.st1{display:inline;}
	.st2{fill:url(#SVGID_1_);}
	.st3{fill:url(#SVGID_00000154397204960013887050000010739447604583487896_);}
	.st4{fill:url(#SVGID_00000077306358963656874460000009244672431942236833_);}
	.st5{fill:url(#SVGID_00000062177129044647061030000013953496446002461057_);}
	.st6{fill:url(#SVGID_00000080199640513215575590000015679756954299218320_);}
	.st7{fill:url(#SVGID_00000008845217823027353860000017244250267615724953_);}
</style>
<g id="Ebene_1" class="st0">
	<g class="st1">
		<path d="M464.3-251.6c0.2-0.1,0.3-0.1,0.5-0.2c10.9-6.5,22.7-10.7,35.3-12.5c12.4-1.8,24.6-1.1,36.6,2.7
			c8.2,2.6,15.8,6.4,22.8,11.3c2.4,1.6,3.5,4.1,4,6.8c0.8,4.6,0,9.1-1.3,13.5c-2.3,7.4-5.6,14.4-9.8,20.9c-4,6.3-8.3,12.5-12.5,18.7
			c-2.2,3.4-4,6.9-4.6,10.9c-0.6,3.6,0.5,5.7,3.8,7.3c2.6,1.2,5.4,1.7,8.3,1.9c7.5,0.5,15-0.2,22.4-1.5c3.6-0.6,7.1-1.4,10.7-2.2
			c0.9-0.2,1.7-0.6,2.5-1c1.2-0.6,1.4-1.6,0.6-2.7c-1.2-1.7-2.6-3.2-4.6-4.1c-1.6-0.7-2.6-1.9-3-3.6c-0.6-3,1.6-5.7,4.8-5.8
			c4.5-0.1,9.1-0.1,13.6-0.2c11.7-0.1,23.3-0.2,35-0.2c7.7,0,14.7,2.1,20.8,6.8c6.2,4.8,10,11,10.8,18.9c0.5,4.8-0.2,9.6-1.4,14.2
			c-1.4,5-3.8,9.5-6.2,14.1c-2.4,4.7-4.8,9.3-7.2,14c-10.3,19.7-20.4,39.6-30.9,59.2c-5.7,10.7-12.2,21.1-18.3,31.7
			c-2.5,4.3-5.6,7.9-9.8,10.6c-3.9,2.4-8.1,3.8-12.6,4.2c-0.3,0-0.6,0.1-0.9,0.1c-1.2,0-2.3,0-3.5,0c-1.4-0.2-2.9-0.4-4.3-0.7
			c-5.4-1.2-10-3.9-14.2-7.3c-4.3-3.5-7.6-7.7-10.9-12c-10.7-14.1-21.4-28.2-31.6-42.6c-9.9-14.1-19.9-28.2-29.7-42.4
			c-4.6-6.6-8.2-13.6-10.6-21.3c-1.6-5.2-2.8-10.4-2.4-15.9c0.6-9.2,4.9-16.2,12.8-20.9c5.2-3.1,11-4.8,17-5.8
			c3.7-0.6,7.5-0.8,11.2-0.7c0.4,0,0.7,0.1,1.2,0.1c-0.2,3.2-0.4,6.3-0.6,9.4c-2.1,0.1-4.1,0.3-6.1,0.4c-5.8,0.4-11.5,1.5-16.7,4.3
			c-3.7,2-6.6,4.8-8.1,8.9c-1.1,3.1-1.1,6.4-0.7,9.6c0.6,5.5,2.7,10.6,5,15.6c3.2,6.8,7.3,13.1,11.7,19.2
			c12.4,17.3,24.6,34.6,37.1,51.7c6.7,9.2,13.6,18.1,20.5,27.1c2.9,3.8,6.1,7.1,10.1,9.8c3.3,2.2,6.8,3.6,10.8,3.7
			c4.9,0.2,9.1-1.6,12.7-4.8c1.8-1.6,3.3-3.5,4.5-5.6c9.7-15.8,18.7-32.1,27.2-48.6c10.3-19.9,20.7-39.9,30.9-59.9
			c2.4-4.7,4.1-9.7,4.4-15c0.3-5.6-1.4-10.5-5.6-14.3c-2.5-2.3-5.5-3.8-8.7-4.9c-3.7-1.3-7.6-1.4-11.5-1.4
			c-10.3,0.1-20.6,0.1-30.9,0.2c-0.6,0-1.3,0.1-2.1,0.1c0.1,0.7,0.2,1.3,0.4,1.9c0.5,2.1,0.6,4.2,0.1,6.3c-0.8,3.2-3,5.4-5.8,7
			c-2.6,1.5-5.5,2.2-8.5,2.8c-7.4,1.4-14.9,2.7-22.4,3c-5.7,0.2-11.5,0.3-17.1-1.2c-3.1-0.8-6.1-2.1-8.6-4.2
			c-4.3-3.7-5.9-8.4-5.4-13.9c0.5-4.5,2-8.7,4.3-12.6c2.3-3.9,4.9-7.6,7.5-11.3c4.7-6.8,9.1-13.7,12.6-21.2c1.8-3.8,3.3-7.8,3.9-12
			c0.2-1.5,0.1-3.1,0.2-4.6c0-0.8-0.5-1.2-1.1-1.6c-7.6-5.1-15.7-8.8-24.6-10.8c-9.2-2.1-18.5-2.2-27.8-0.8
			c-10.7,1.6-20.6,5.3-30,10.8c-0.2,0.1-0.3,0.2-0.5,0.3c0,0-0.1,0-0.2,0.1c-1-1.5-2-3.1-3.1-4.6c-0.8-1.1-1.5-2.2-2.3-3.3
			C464.3-251.5,464.3-251.5,464.3-251.6z"/>
		<path d="M669.5-255.8c-0.9,1.6-1.7,3.2-2.6,4.7c-0.6,1.2-1.3,2.4-1.9,3.6c-2.1-1-4.2-1.9-6.2-2.8c-7.3-3.1-14.9-5.2-22.9-5.8
			c-9.9-0.7-19.3,0.9-28.4,5c-4.7,2.1-9,4.7-13.1,7.6c-0.3,0.2-0.5,0.4-0.9,0c-2-2.2-4.1-4.3-6.2-6.5c0.3-0.2,0.5-0.5,0.8-0.7
			c9.9-8,21.2-12.9,33.9-14.6c1.9-0.3,3.8-0.4,5.7-0.5c0.3,0,0.6-0.1,0.9-0.1c2.1,0,4.1,0,6.2,0c0.2,0,0.4,0.1,0.6,0.1
			c8.2,0.4,16.2,2.2,23.9,5.2c3.5,1.4,6.9,3.1,10.3,4.6C669.5-255.9,669.5-255.8,669.5-255.8z"/>
		<path d="M522.2-133.2c-3.1,0.7-6.2,1.4-9.3,2.1c-0.3-1.5-0.4-3.1-0.3-4.6c0.6-6.6,4-11.3,9.8-14.3c4-2,8.2-3,12.6-3.3
			c2.2-0.2,4.4-0.2,6.6-0.2c18,0,36,0,54,0c5.2,0,10.1,1,14.8,3.4c7.2,3.8,10.3,11,8.1,18.8c-0.8,2.6-1.9,5.2-3.1,7.7
			c-10.5,20.9-21,41.8-31.5,62.6c-1.3,2.6-2.9,5-4.9,7c-4.8,4.8-10.8,5.5-16.7,2.1c-4-2.4-7.2-5.5-9.7-9.4
			c-9-13.8-17.5-27.9-25-42.6c-1.9-3.8-4-7.5-5.9-11.3c-0.3-0.7-0.7-1.4-0.9-2.1c-0.6-2.1-0.1-3.8,1.7-5c1-0.7,2.2-1.2,3.3-1.8
			c8.2-3.7,16.7-6.5,25.5-8c7.3-1.3,14.7-1.8,22.1-0.9c7.9,0.9,15.2,3.4,22,7.4c0,0,0.1,0.1,0.1,0.2c-1.7,2.6-3.4,5.3-5.1,8
			c-0.7-0.3-1.3-0.6-2-0.9c-4-2-8.2-3.6-12.6-4.4c-6.7-1.2-13.4-1-20.1-0.1c-7.8,1.1-15.3,3.3-22.6,6.2c-0.1,0.1-0.3,0.1-0.4,0.2
			c-0.6,0.2-0.6,0.5-0.4,1c5.8,11.1,11.7,22.2,18.1,32.9c2.8,4.6,5.6,9.1,8.6,13.5c1.6,2.3,3.4,4.5,5.4,6.5c1,1.1,2.4,1.9,3.8,2.7
			c1.2,0.7,2.3,0.4,3.2-0.7c1.3-1.7,2.8-3.4,3.7-5.4c10.6-20.8,21-41.5,31.5-62.4c1.1-2.2,1.8-4.5,2.5-6.9c0.7-2.3-0.1-4.3-2.1-5.7
			c-2.8-1.9-5.9-2.8-9.2-2.9c-4.8-0.1-9.7-0.1-14.5-0.1c-14.1,0-28.2,0.1-42.3,0.1c-4.2,0-8.3,0.3-12.4,1.6
			c-0.3,0.1-0.6,0.2-0.9,0.3c-3.1,1.1-4.9,3.4-5.2,6.6C522.4-134.5,522.3-133.9,522.2-133.2z"/>
		<path d="M472.6-211c-2.5-2.1-4.9-4.1-7.4-6.1c6.2-6.6,13.6-11.4,22.3-14.3c13-4.3,26-3,37.1,1c-1,3-2.1,6-3.1,9.1
			C503.2-227.3,486.8-224.5,472.6-211z"/>
		<path d="M661.2-217.6c-2.1,2.5-4.1,4.9-6.2,7.3c-1-0.8-2.1-1.6-3.1-2.3c-7-5.1-14.6-8.9-23.2-10.5c-8-1.6-16-1.1-23.9,1
			c-1.1,0.3-2.1,0.6-3.3,0.9c-1.3-2.9-2.6-5.8-3.9-8.7c9.1-3.5,18.5-4.6,28.1-3.5C639.2-231.9,650.8-226.3,661.2-217.6z"/>
	</g>
	<g class="st1">
		<path d="M39.1-251.6c0.2-0.1,0.3-0.1,0.5-0.2c10.9-6.5,22.7-10.7,35.3-12.5c12.4-1.8,24.6-1.1,36.6,2.7
			c8.2,2.6,15.8,6.4,22.8,11.3c2.4,1.6,3.5,4.1,4,6.8c0.8,4.6,0,9.1-1.3,13.5c-2.3,7.4-5.6,14.4-9.8,20.9c-4,6.3-8.3,12.5-12.5,18.7
			c-2.2,3.4-4,6.9-4.6,10.9c-0.6,3.6,0.5,5.7,3.8,7.3c2.6,1.2,5.4,1.7,8.3,1.9c7.5,0.5,15-0.2,22.4-1.5c3.6-0.6,7.1-1.4,10.7-2.2
			c0.9-0.2,1.7-0.6,2.5-1c1.2-0.6,1.4-1.6,0.6-2.7c-1.2-1.7-2.6-3.2-4.6-4.1c-1.6-0.7-2.6-1.9-3-3.6c-0.6-3,1.6-5.7,4.8-5.8
			c4.5-0.1,9.1-0.1,13.6-0.2c11.7-0.1,23.3-0.2,35-0.2c7.7,0,14.7,2.1,20.8,6.8c6.2,4.8,10,11,10.8,18.9c0.5,4.8-0.2,9.6-1.4,14.2
			c-1.4,5-3.8,9.5-6.2,14.1c-2.4,4.7-4.8,9.3-7.2,14c-10.3,19.7-20.4,39.6-30.9,59.2C184.4-53.4,178-43,171.9-32.5
			c-2.5,4.3-5.6,7.9-9.8,10.6c-3.9,2.4-8.1,3.8-12.6,4.2c-0.3,0-0.6,0.1-0.9,0.1c-1.2,0-2.3,0-3.5,0c-1.4-0.2-2.9-0.4-4.3-0.7
			c-5.4-1.2-10-3.9-14.2-7.3c-4.3-3.5-7.6-7.7-10.9-12c-10.7-14.1-21.4-28.2-31.6-42.6c-9.9-14.1-19.9-28.2-29.7-42.4
			c-4.6-6.6-8.2-13.6-10.6-21.3c-1.6-5.2-2.8-10.4-2.4-15.9c0.6-9.2,4.9-16.2,12.8-20.9c5.2-3.1,11-4.8,17-5.8
			c3.7-0.6,7.5-0.8,11.2-0.7c0.4,0,0.7,0.1,1.2,0.1c-0.2,3.2-0.4,6.3-0.6,9.4c-2.1,0.1-4.1,0.3-6.1,0.4c-5.8,0.4-11.5,1.5-16.7,4.3
			c-3.7,2-6.6,4.8-8.1,8.9c-1.1,3.1-1.1,6.4-0.7,9.6c0.6,5.5,2.7,10.6,5,15.6c3.2,6.8,7.3,13.1,11.7,19.2
			c12.4,17.3,24.6,34.6,37.1,51.7c6.7,9.2,13.6,18.1,20.5,27.1c2.9,3.8,6.1,7.1,10.1,9.8c3.3,2.2,6.8,3.6,10.8,3.7
			c4.9,0.2,9.1-1.6,12.7-4.8c1.8-1.6,3.3-3.5,4.5-5.6c9.7-15.8,18.7-32.1,27.2-48.6c10.3-19.9,20.7-39.9,30.9-59.9
			c2.4-4.7,4.1-9.7,4.4-15c0.3-5.6-1.4-10.5-5.6-14.3c-2.5-2.3-5.5-3.8-8.7-4.9c-3.7-1.3-7.6-1.4-11.5-1.4
			c-10.3,0.1-20.6,0.1-30.9,0.2c-0.6,0-1.3,0.1-2.1,0.1c0.1,0.7,0.2,1.3,0.4,1.9c0.5,2.1,0.6,4.2,0.1,6.3c-0.8,3.2-3,5.4-5.8,7
			c-2.6,1.5-5.5,2.2-8.5,2.8c-7.4,1.4-14.9,2.7-22.4,3c-5.7,0.2-11.5,0.3-17.1-1.2c-3.1-0.8-6.1-2.1-8.6-4.2
			c-4.3-3.7-5.9-8.4-5.4-13.9c0.5-4.5,2-8.7,4.3-12.6c2.3-3.9,4.9-7.6,7.5-11.3c4.7-6.8,9.1-13.7,12.6-21.2c1.8-3.8,3.3-7.8,3.9-12
			c0.2-1.5,0.1-3.1,0.2-4.6c0-0.8-0.5-1.2-1.1-1.6c-7.6-5.1-15.7-8.8-24.6-10.8c-9.2-2.1-18.5-2.2-27.8-0.8
			c-10.7,1.6-20.6,5.3-30,10.8c-0.2,0.1-0.3,0.2-0.5,0.3c0,0-0.1,0-0.2,0.1c-1-1.5-2-3.1-3.1-4.6c-0.8-1.1-1.5-2.2-2.3-3.3
			C39.1-251.5,39.1-251.5,39.1-251.6z"/>
		<path d="M244.3-255.8c-0.9,1.6-1.7,3.2-2.6,4.7c-0.6,1.2-1.3,2.4-1.9,3.6c-2.1-1-4.2-1.9-6.2-2.8c-7.3-3.1-14.9-5.2-22.9-5.8
			c-9.9-0.7-19.3,0.9-28.4,5c-4.7,2.1-9,4.7-13.1,7.6c-0.3,0.2-0.5,0.4-0.9,0c-2-2.2-4.1-4.3-6.2-6.5c0.3-0.2,0.5-0.5,0.8-0.7
			c9.9-8,21.2-12.9,33.9-14.6c1.9-0.3,3.8-0.4,5.7-0.5c0.3,0,0.6-0.1,0.9-0.1c2.1,0,4.1,0,6.2,0c0.2,0,0.4,0.1,0.6,0.1
			c8.2,0.4,16.2,2.2,23.9,5.2c3.5,1.4,6.9,3.1,10.3,4.6C244.3-255.9,244.3-255.8,244.3-255.8z"/>
		<path d="M97-133.2c-3.1,0.7-6.2,1.4-9.3,2.1c-0.3-1.5-0.4-3.1-0.3-4.6c0.6-6.6,4-11.3,9.8-14.3c4-2,8.2-3,12.6-3.3
			c2.2-0.2,4.4-0.2,6.6-0.2c18,0,36,0,54,0c5.2,0,10.1,1,14.8,3.4c7.2,3.8,10.3,11,8.1,18.8c-0.8,2.6-1.9,5.2-3.1,7.7
			c-10.5,20.9-21,41.8-31.5,62.6c-1.3,2.6-2.9,5-4.9,7c-4.8,4.8-10.8,5.5-16.7,2.1c-4-2.4-7.2-5.5-9.7-9.4
			c-9-13.8-17.5-27.9-25-42.6c-1.9-3.8-4-7.5-5.9-11.3c-0.3-0.7-0.7-1.4-0.9-2.1c-0.6-2.1-0.1-3.8,1.7-5c1-0.7,2.2-1.2,3.3-1.8
			c8.2-3.7,16.7-6.5,25.5-8c7.3-1.3,14.7-1.8,22.1-0.9c7.9,0.9,15.2,3.4,22,7.4c0,0,0.1,0.1,0.1,0.2c-1.7,2.6-3.4,5.3-5.1,8
			c-0.7-0.3-1.3-0.6-2-0.9c-4-2-8.2-3.6-12.6-4.4c-6.7-1.2-13.4-1-20.1-0.1c-7.8,1.1-15.3,3.3-22.6,6.2c-0.1,0.1-0.3,0.1-0.4,0.2
			c-0.6,0.2-0.6,0.5-0.4,1c5.8,11.1,11.7,22.2,18.1,32.9c2.8,4.6,5.6,9.1,8.6,13.5c1.6,2.3,3.4,4.5,5.4,6.5c1,1.1,2.4,1.9,3.8,2.7
			c1.2,0.7,2.3,0.4,3.2-0.7c1.3-1.7,2.8-3.4,3.7-5.4c10.6-20.8,21-41.5,31.5-62.4c1.1-2.2,1.8-4.5,2.5-6.9c0.7-2.3-0.1-4.3-2.1-5.7
			c-2.8-1.9-5.9-2.8-9.2-2.9c-4.8-0.1-9.7-0.1-14.5-0.1c-14.1,0-28.2,0.1-42.3,0.1c-4.2,0-8.3,0.3-12.4,1.6
			c-0.3,0.1-0.6,0.2-0.9,0.3c-3.1,1.1-4.9,3.4-5.2,6.6C97.2-134.5,97.1-133.9,97-133.2z"/>
		<path d="M47.4-211c-2.5-2.1-4.9-4.1-7.4-6.1c6.2-6.6,13.6-11.4,22.3-14.3c13-4.3,26-3,37.1,1c-1,3-2.1,6-3.1,9.1
			C78-227.3,61.6-224.5,47.4-211z"/>
		<path d="M236-217.6c-2.1,2.5-4.1,4.9-6.2,7.3c-1-0.8-2.1-1.6-3.1-2.3c-7-5.1-14.6-8.9-23.2-10.5c-8-1.6-16-1.1-23.9,1
			c-1.1,0.3-2.1,0.6-3.3,0.9c-1.3-2.9-2.6-5.8-3.9-8.7c9.1-3.5,18.5-4.6,28.1-3.5C214-231.9,225.6-226.3,236-217.6z"/>
	</g>
</g>
<g id="Ebene_2">
	<g>
		<g>
			<g>
				<linearGradient id="SVGID_1_" gradientUnits="userSpaceOnUse" x1="141.7323" y1="267.0402" x2="141.7323" y2="16.4244">
					<stop  offset="0" style="stop-color:#FAD649"/>
					<stop  offset="0.25" style="stop-color:#EF8031"/>
					<stop  offset="0.5" style="stop-color:#EB356A"/>
					<stop  offset="0.75" style="stop-color:#C131BF"/>
					<stop  offset="1" style="stop-color:#6B46F1"/>
				</linearGradient>
				<path class="st2" d="M96.3,61.4l3.1-11.6c-36.2-9.7-59.7,14.7-60.7,15.7l8.7,8.2C48.2,72.9,67.1,53.6,96.3,61.4z"/>
				
					<linearGradient id="SVGID_00000061464873175799440180000014789553247632145584_" gradientUnits="userSpaceOnUse" x1="141.7323" y1="267.0402" x2="141.7323" y2="16.4244">
					<stop  offset="0" style="stop-color:#FAD649"/>
					<stop  offset="0.25" style="stop-color:#EF8031"/>
					<stop  offset="0.5" style="stop-color:#EB356A"/>
					<stop  offset="0.75" style="stop-color:#C131BF"/>
					<stop  offset="1" style="stop-color:#6B46F1"/>
				</linearGradient>
				<path style="fill:url(#SVGID_00000061464873175799440180000014789553247632145584_);" d="M166.9,166.3l2.8-11.7
					c-0.6-0.2-15.8-3.7-35.1-2.1c-9.4,0.8-40.2,4.5-40.2,19.9c0,2.1,0,4.3,12.9,23.4c6.7,9.9,14.6,21,19.8,28.1
					c5.4,7.4,11.1,11.1,17,11.1c0.3,0,0.7,0,1,0c6-0.4,10.4-4.8,12.5-8.7c0.4-0.7,1.4-2.5,2.8-5.2c7.7-14.1,25.9-47.2,32.1-60.9
					c3.5-7.7,2.2-13.3,0.5-16.7c-2.9-5.7-9-9.5-18.1-11.5l-0.1,0c-6.9-1.5-49-4.4-76.7,6.9l4.5,11.1c24.7-10,64.4-7.4,69.7-6.2
					l0.1,0c7.1,1.5,9.3,3.9,9.9,5.2c0.7,1.5,0.5,3.6-0.7,6.3c-6,13.3-24.6,47.3-31.7,60.1c-1.5,2.7-2.5,4.6-2.9,5.3
					c-0.5,0.9-1.6,2.3-2.8,2.4c-1.4,0.1-4.1-1.5-7.5-6.2c-14.2-19.3-27.2-38.6-30-44.3c2.1-2.1,10.9-6.5,28.8-8
					C152.9,163,166.8,166.2,166.9,166.3z"/>
				
					<linearGradient id="SVGID_00000181806503574163412410000007749793906234610583_" gradientUnits="userSpaceOnUse" x1="141.7323" y1="267.0402" x2="141.7323" y2="16.4244">
					<stop  offset="0" style="stop-color:#FAD649"/>
					<stop  offset="0.25" style="stop-color:#EF8031"/>
					<stop  offset="0.5" style="stop-color:#EB356A"/>
					<stop  offset="0.75" style="stop-color:#C131BF"/>
					<stop  offset="1" style="stop-color:#6B46F1"/>
				</linearGradient>
				<path style="fill:url(#SVGID_00000181806503574163412410000007749793906234610583_);" d="M86.4,29.1
					c20.6-0.6,40.8,6.4,41.4,12.3l0.1,0.5c0.1,0.7,0.4,5.1-2.4,13.8c-3.5,10.9-13.6,23.6-13.7,23.8l-0.1,0.1c-1.5,2-2.9,3.7-4.1,5.3
					c-6,7.7-9.7,12.3-8,20.9c0.4,2.3,2.1,8.1,8.3,12.5c5,3.6,11.6,5.4,19.9,5.4c2.7,0,5.5-0.2,8.4-0.6c0.3,0,8.2-1,14.2-2.1
					l-2.2-11.8c-5.7,1-13.4,2-13.5,2c-15.7,2-22.3-2.7-23.3-7.7c-0.6-3-0.1-3.9,5.6-11.2c1.2-1.6,2.6-3.3,4.2-5.4
					c0.9-1.2,11.6-14.8,15.7-27.5c3.7-11.5,3.1-17.7,2.8-19.5c-2.3-18.3-37.1-23.3-53.7-22.8C57.8,17.9,40,29.5,39.3,30l6.6,10
					C46.1,39.9,61.8,29.8,86.4,29.1z"/>
				
					<linearGradient id="SVGID_00000032625242179757205480000011035750586567500464_" gradientUnits="userSpaceOnUse" x1="141.7323" y1="267.0402" x2="141.7323" y2="16.4244">
					<stop  offset="0" style="stop-color:#FAD649"/>
					<stop  offset="0.25" style="stop-color:#EF8031"/>
					<stop  offset="0.5" style="stop-color:#EB356A"/>
					<stop  offset="0.75" style="stop-color:#C131BF"/>
					<stop  offset="1" style="stop-color:#6B46F1"/>
				</linearGradient>
				<path style="fill:url(#SVGID_00000032625242179757205480000011035750586567500464_);" d="M202.2,91c-7.5,0-42,2.5-43.5,2.6
					l0.9,12c12.3-0.9,37-2.6,42.6-2.6c11.2,0,18.4,4,22,12.3c3,7,0,17.1-11.3,37.1c-1.8,3.1-5,9.4-9.4,18
					c-9.7,18.8-24.3,47.3-37.5,69.8c-7.4,12.5-11.4,13.7-15.5,14.7c-4.7,0.5-13.2,1.3-24.5-13.4c-9.5-12.4-25.9-34.6-40.7-55.3
					c-13.3-18.7-25.6-36.2-29.1-46c-3.8-10.7-5.7-24.5,7.2-29.8c10.6-4.3,20.8-5.1,20.9-5.1l-0.8-12c-0.5,0-12.1,0.9-24.6,6
					c-16.4,6.7-21.6,23.5-13.9,44.9c4,11.3,15.8,28.1,30.7,49c14.9,20.8,31.3,43.2,41,55.6c12.2,15.9,23.8,18.3,30.9,18.3
					c1.9,0,3.5-0.2,4.7-0.3l0.2,0c0.2,0,0.5-0.1,0.7-0.1c8.6-2,14.9-5.9,23.5-20.4c13.4-22.7,28.1-51.4,37.9-70.4
					c4.2-8.2,7.5-14.7,9.2-17.6c11.6-20.6,17.3-35,11.9-47.7C231.4,101.6,222.6,91,202.2,91z"/>
				
					<linearGradient id="SVGID_00000115498211850384403810000001855796271680921222_" gradientUnits="userSpaceOnUse" x1="141.7323" y1="267.0402" x2="141.7323" y2="16.4244">
					<stop  offset="0" style="stop-color:#FAD649"/>
					<stop  offset="0.25" style="stop-color:#EF8031"/>
					<stop  offset="0.5" style="stop-color:#EB356A"/>
					<stop  offset="0.75" style="stop-color:#C131BF"/>
					<stop  offset="1" style="stop-color:#6B46F1"/>
				</linearGradient>
				<path style="fill:url(#SVGID_00000115498211850384403810000001855796271680921222_);" d="M183.4,19.9
					c-14.6,4.9-22.7,13.1-23.1,13.5l8.6,8.4c1.1-1.1,27.1-26.5,70.5-4.6l5.4-10.7C218.1,13,196.7,15.5,183.4,19.9z"/>
				
					<linearGradient id="SVGID_00000028301529126912613250000006749978208135824277_" gradientUnits="userSpaceOnUse" x1="141.7323" y1="267.0402" x2="141.7323" y2="16.4244">
					<stop  offset="0" style="stop-color:#FAD649"/>
					<stop  offset="0.25" style="stop-color:#EF8031"/>
					<stop  offset="0.5" style="stop-color:#EB356A"/>
					<stop  offset="0.75" style="stop-color:#C131BF"/>
					<stop  offset="1" style="stop-color:#6B46F1"/>
				</linearGradient>
				<path style="fill:url(#SVGID_00000028301529126912613250000006749978208135824277_);" d="M228.6,71.5l7.7-9.2
					c-26-21.6-61-12.5-62.5-12.1l3.1,11.6C177.1,61.7,207.4,53.9,228.6,71.5z"/>
			</g>
		</g>
	</g>
</g>
</svg>
